Patient4_TMGait_0pt6_02_right_40_EMG.mot
version=1
nRows=26
nColumns=33
inDegrees=no
endheader
time	1LAddLong	2LGlutMax	3LGlutMed	4LIliopsoas	5LSemiMemb	6LBicFemLong	7LRecFem	8LVastMed	9LVastLat	10LGasMed	11LTibAnt	12lTibPost	13LPeroneusLong	14LSol	15LExtDigLong	16LFlexDigLong	17RAddLong	18RGlutMax	19RGlutMed	20RIliopsoas	21RSemiMemb	22RBicFemLong	23RRecFem	24RVastMed	25RVastLat	26RGasMed	27RTibAnt	28RTibPost	29RPeroneusLong	30RSol	31RExtDigLong	32RFlexDigLong
49.513	0.005951	0.027924	-0.11597	0.007019	-0.051422	0.15869	0.10956	0.000916	-0.069885	0.10925	0.016632	0.015259	-0.033417	0.10086	0.003815	0.2803	-0.10101	0.008392	-0.23987	-0.021057	-0.015259	-0.010071	-0.008087	-0.04364	0.005646	0.001526	0.019836	0	-0.037842	-0.039368	-0.003052	-0.007477
49.514	-0.006104	0.009155	-0.0914	0.010223	-0.089417	0.21378	0.14282	-0.005493	0.036011	-0.64743	0.011139	0.011444	-0.081024	0.26718	0.004578	-0.001984	-0.091553	-0.018311	-0.33798	0.010681	-0.009766	-0.052643	0.054016	-0.045166	-0.001221	0	0.034943	-0.006256	-0.040131	-0.023651	-0.002899	0
49.515	-0.015106	-0.014038	-0.052185	0.007935	-0.12436	0.15076	0.16678	-0.002136	0.01709	-0.98206	-0.000763	0.014191	-0.11841	0.19821	0.014801	-0.05188	-0.050659	-0.028534	-0.30807	-0.015259	0.012817	-0.048523	0.044098	-0.066833	-0.009308	0.004272	0.0354	-0.008698	-0.024567	-0.043335	-0.001984	-0.00473
49.516	-0.015106	0.041809	0.048523	0.003204	-0.15976	0.079041	0.16296	0.008392	-0.054321	-0.23178	0.002899	0.001373	-0.075684	0.48935	0.029297	-0.121	-0.035706	-0.11551	-0.10117	-0.003357	-0.010986	0.06012	0.044861	-0.071564	0.020752	0.007324	0.035553	-0.011292	0.005341	-0.037079	-0.00412	-0.00473
49.517	-0.022583	0.033264	-0.002594	0.011902	-0.050354	-0.043488	0.16281	0.014343	-0.066986	0.23468	0.006866	-0.05127	0.082397	0.60516	0.017395	0.045166	-0.016479	-0.12848	-0.21698	0.023956	0.052948	0.070801	-0.007477	-0.06546	0.000305	0.004578	0.041046	-0.001373	-0.015869	-0.053558	0.000916	-0.008698
49.518	-0.032349	-0.013428	-0.06134	0.015259	0.016174	-0.21271	0.20416	0.015259	-0.070801	0.27176	0.002899	0.010986	0.18845	0.2095	-0.010071	-0.16296	0.001831	-0.12177	-0.30502	0.023499	-0.022583	0.061798	0.041046	-0.06073	-0.016174	0.004883	0.1004	-0.005188	-0.033569	-0.047913	-0.001068	0.001526
49.519	-0.010529	0.039063	0.036011	-0.005798	0.10422	-0.31387	0.17731	0.00946	-0.059357	0.12482	-0.002136	0.026398	0.25391	-0.41336	-0.007935	-0.10895	0.021362	-0.082245	-0.17258	-0.041809	-0.11612	0.046082	0.055847	-0.081024	-0.015106	0.001221	0.15381	-0.000763	-0.032654	-0.033722	-0.000153	-0.000916
49.52	0.001678	-0.009918	0.048676	0.012665	0.12329	-0.20676	0.1648	0.016632	-0.011749	0.22781	-0.002899	0.03479	0.27069	-0.77927	0.006104	0.26047	0.018616	-0.086365	0.12863	-0.052795	-0.13214	0.009003	0.043335	-0.092621	0.003357	0.00351	0.17212	-0.000153	-0.027161	-0.023041	-0.002594	-0.002747
49.521	0.02533	0.003052	-0.027313	0.010986	0.233	-0.14938	0.168	0.006714	0.10223	0.35812	0.011902	0.049896	0.075684	-0.73502	-0.014648	-0.014496	0.015106	-0.047607	-0.10574	-0.045624	-0.049591	-0.046997	0.027924	-0.061951	-0.002899	0.005035	0.22018	-0.005341	-0.013275	-0.037537	-0.002289	0.006714
49.522	0.027924	0.016632	-0.032806	0.018921	0.11932	-0.088654	0.21896	-0.000458	0.037079	0.28656	0.018616	0.074768	-0.058136	-0.4776	-0.027618	-0.21545	0.026093	-0.070953	-0.29938	-0.059662	0.016785	-0.06012	0.0354	-0.088959	-0.016632	0.005798	0.15869	-0.010986	0.21011	-0.04715	-0.006409	-0.003662
49.523	0.025635	-0.001373	-0.087891	0.011139	0.00473	-0.005035	0.24567	-0.004578	-0.019836	-0.27344	0.007629	-0.096283	-0.13245	0.20462	-0.011597	-0.13825	0.014801	-0.11734	-0.52124	-0.016022	0.19379	-0.15274	0.013275	-0.091858	0.017395	0.011749	-0.010986	-0.005493	0.4425	-0.024567	-0.007477	-0.008545
49.524	0.031281	0.039368	-0.12772	0.003204	0.033875	0.003204	0.22934	-0.050507	-0.015411	-0.625	0.006866	-0.018768	-0.087585	0.60745	0.011902	0.007629	0.032501	-0.069427	-0.63171	-0.027618	0.12177	-0.22949	0.036926	-0.11948	0.008392	0.000916	-0.10223	-0.003815	0.34683	-0.041351	-0.002899	-0.013123
49.525	0.022125	0.043488	-0.11154	-0.000916	0.050049	0.080414	0.20721	0.009766	0.028229	-0.78079	0.005798	-0.010681	-0.14374	0.68619	0.012665	0.024109	0.029755	-0.045319	-0.52322	-0.043793	0.020905	-0.233	0.014801	-0.061188	0.037384	0.001526	-0.20493	-0.009003	0.028229	-0.028687	0.000153	-0.005188
49.526	0.015717	0.031433	-0.045471	0.00412	0.029297	0.13382	0.22217	-0.004425	0.029755	-0.55435	0.016785	-0.023041	-0.18005	0.45944	0.007019	0.015106	0.03479	-0.028687	-0.037537	-0.035858	-0.11459	-0.17838	0.045776	-0.059814	0.04715	0.003967	-0.24338	-0.001373	-0.19547	-0.050659	-0.000916	-0.00351
49.527	0.00351	0.036163	-0.058289	-0.000305	0.003052	0.09491	0.22781	0.01358	0.002441	-0.46417	0.013428	-0.030975	-0.12878	0.11185	0.01236	-0.018158	-0.006104	-0.058441	0.28748	-0.038147	-0.13138	-0.1384	0.034485	-0.034027	0.041504	0.00946	-0.1091	-0.003357	-0.28351	-0.048676	-0.001678	-0.00412
49.528	0.008698	0.016785	-0.096893	-0.010376	-0.007477	-0.047913	0.24094	0.006866	0.00061	-0.3801	0.010681	-0.02594	-0.11093	0.13412	0.018768	-0.058746	-0.040741	-0.080414	0.29846	-0.01709	-0.11017	0.1445	0.018158	-0.06485	0.039368	-0.002136	-0.020752	-0.001373	-0.033417	-0.070648	-0.002441	-0.006409
49.529	-0.004425	0.022888	-0.16647	-0.007629	-0.008545	-0.046997	0.22415	0.008392	0.017395	-0.17303	-0.004272	-0.021515	-0.082397	0.2417	0.037689	-0.088806	-0.048523	-0.11337	-0.032196	-0.041046	-0.043793	0.18356	0.048676	-0.11353	0.022125	-0.000916	-0.051422	0.003204	0.22934	-0.063934	0	-0.00351
49.53	-0.017395	0.06546	0.03067	-0.007935	0.009613	-0.049591	0.21668	-0.000305	0.003815	-0.032043	0.004425	-0.009918	-0.081177	0.34851	0.036621	0.10498	-0.049286	-0.13031	-0.21774	-0.065155	0.21103	0.15533	0.010834	-0.079193	0.036774	0.000916	-0.045776	-0.00473	-0.24872	-0.068512	-0.002136	-0.004883
49.531	-0.007782	0.060577	0.14053	-0.003357	-0.013733	-0.027771	0.21454	0.017853	-0.011139	-0.000916	0.006866	-0.027313	-0.076141	0.37155	0.015869	0.15213	-0.033417	-0.1207	-0.28519	-0.031891	0.10834	0.31708	-0.018768	-0.051727	0.030975	-0.004883	0.028687	-0.003815	-1.013	-0.077972	0.001678	-0.003052
49.532	-0.007324	0.063171	0.033875	-0.010529	-0.059204	0.018311	0.23377	0.012665	-0.12299	0.070343	0.01358	0.11185	-0.019531	0.20187	-0.016785	0.018768	-0.026703	-0.11734	-0.28641	0.023041	0.13382	0.23529	-0.019684	0.000458	0.053253	-0.001678	0.033112	-0.004883	-0.25925	-0.10162	-0.002899	-0.011139
49.533	-0.005188	0.053101	-0.074615	-0.005951	-0.082397	0.004425	0.25833	0.001068	-0.11917	0.30884	0.016174	0.11398	-0.005035	-0.048981	-0.042114	-0.038757	-0.010376	-0.159	-0.3186	0.087585	0.099792	0.055237	0.033722	-0.031891	0.040894	-0.011139	-0.010529	0.002899	0.30899	-0.035858	-0.001068	-0.006561
49.534	-0.005188	0.066681	-0.096893	0.011597	-0.024109	0.000763	0.25711	0.01709	-0.097351	0.11169	0.014954	-0.045624	0.061798	-0.06897	-0.026245	-0.112	-0.001373	-0.14999	-0.3157	0.13046	0.059357	0.055237	0.00885	-0.066376	0.015411	-0.014038	-0.007782	-0.006561	0.28458	0.014801	-0.003967	-0.008392
49.535	-0.000153	0.075531	-0.10315	0.006714	0.026093	0.001984	0.17502	0.018616	-0.063477	-0.069885	0.007172	-0.022125	0.16312	0.050964	-0.003357	-0.048676	0.013733	-0.17242	-0.26443	0.047302	0.050049	0.058136	0.029602	-0.093994	0.037689	-0.012817	-0.037537	-0.000305	0.23163	0.013123	-0.002441	-0.002441
49.536	0.010834	0.10391	-0.087585	0.022125	0.008087	0.015106	0.17975	0.001984	0.012512	-0.034332	0.00351	-0.010681	0.14282	0.25909	-0.023193	-0.018768	0.018921	-0.14389	-0.29266	0.066833	0.063477	-0.005341	0.020142	-0.09079	0.032043	-0.010681	-0.079041	-0.003967	0.13153	-0.010681	-0.002441	0.00473
49.537	0.006256	0.11932	-0.058746	0.011902	-0.035706	-0.001068	0.22003	-0.001831	0.079041	0.011902	0.007172	-0.011597	0.11139	0.085602	-0.026245	-0.004272	0.013885	-0.13153	-0.28793	0.05661	0.057068	0.033569	0.019989	-0.051727	0.032043	-0.010986	-0.11124	0.002899	0.032043	-0.001068	-0.006409	-0.012817
49.538	0.002136	0.11963	-0.11185	0.013885	-0.028229	-0.06073	0.18875	0.005341	0.016632	0.029144	0.015717	-0.007935	0.093231	0.027618	-0.011444	0.006561	0.00412	-0.076752	-0.32593	-0.02121	-0.001373	0.009766	0.011749	-0.031891	0.031281	-0.011292	-0.058289	-0.001526	-0.10452	0.030975	-0.005341	-0.007935
